<?xml version="1.0" encoding="UTF-8" standalone="no"?>
<!DOCTYPE svg PUBLIC "-//W3C//DTD SVG 1.1//EN" "http://www.w3.org/Graphics/SVG/1.1/DTD/svg11.dtd">
<!-- Created with Vectornator (http://vectornator.io/) -->
<svg height="100%" stroke-miterlimit="10" style="fill-rule:nonzero;clip-rule:evenodd;stroke-linecap:round;stroke-linejoin:round;" version="1.1" viewBox="0 0 1024 1024" width="100%" xml:space="preserve" xmlns="http://www.w3.org/2000/svg" xmlns:xlink="http://www.w3.org/1999/xlink">
<defs/>
<g id="Layer-1">
<path d="M675.842 77.3511C672.973 80.3854 672.155 83.728 673.388 87.3788C674.597 90.994 675.214 92.849 675.237 92.9438C676.837 100.316 678.521 107.665 680.287 114.991C651.934 122.79 627.671 135.443 607.497 152.95C578.812 177.853 556.872 209.086 541.677 246.649C536.39 259.711 532.597 273.128 530.298 286.902C529.207 293.468 528.437 304.587 527.986 320.256C527.666 331.434 527.086 342.594 526.244 353.735C525.758 360.065 524.17 366.104 521.479 371.853C517.935 379.451 513.828 386.728 509.158 393.686C505.151 398.013 501.187 402.375 497.263 406.772C482.459 423.355 464.323 433.483 442.857 437.157C438.282 437.94 432.96 438.218 426.891 437.993C418.796 437.685 413.474 437.163 410.925 436.428C400.625 433.477 390.994 428.842 382.033 422.525C381.121 421.873 380.682 422.11 380.718 423.236C380.978 429.672 381.061 436.197 380.967 442.811C380.777 455.518 380.682 461.936 380.682 462.067C380.516 569.847 380.67 677.621 381.144 785.389C381.144 785.472 381.055 786.622 380.878 788.839C380.652 791.849 381.707 794.463 384.042 796.679C399.546 811.401 414.606 826.614 429.22 842.32C430.347 843.541 430.921 843.321 430.945 841.662C431.087 824.736 435.224 809.161 443.355 794.937C449.697 783.854 457.555 775.136 466.931 768.783C479.258 760.439 493.482 756.308 509.602 756.391C532.514 756.438 551.07 764.723 565.27 781.247C572.003 789.07 576.987 798.208 580.223 808.663C582.38 815.609 583.885 821.944 584.739 827.669C585.711 834.2 585.717 840.767 584.757 847.369C584.508 849.04 584.822 849.159 585.699 847.725C587.264 845.176 589.048 842.8 591.051 840.595C604.457 825.862 618.372 811.626 632.797 797.888C632.868 797.817 633.674 797.148 635.215 795.879C637.752 793.769 638.919 791.008 638.718 787.594C638.587 785.271 638.522 784.062 638.522 783.967C639.02 735.239 639.305 686.505 639.376 637.765C639.388 629.871 639.85 624.608 640.763 621.977C642.778 616.157 646.95 612.275 653.279 610.331C664.066 607.024 672.025 610.604 677.157 621.07C678.141 623.085 678.592 625.989 678.509 629.782C678.189 644.468 678.266 668.073 678.74 700.598C678.906 711.586 678.835 720.381 678.526 726.983C678.123 735.589 677.483 744.372 676.606 753.333C676.5 754.423 676.784 754.536 677.46 753.67C681.857 748.171 686.403 742.742 691.097 737.384C696.336 731.398 701.326 726.385 706.067 722.343C717.375 712.73 744.397 696.674 744.364 696.456C748.039 708.356 749.372 720.505 748.365 732.904C748.319 733.478 748.073 734.014 747.671 734.415C701.433 780.666 654.856 826.573 607.941 872.136C591.703 887.913 575.185 903.399 558.39 918.594C547.544 928.397 536.906 935.171 526.475 938.916C513.283 943.646 500.298 943.219 487.52 937.636C481.333 934.934 475.542 931.55 470.149 927.484C460.726 920.372 446.502 907.482 427.478 888.813C425.736 887.095 421.955 883.669 416.135 878.537C412.034 874.922 408.282 871.455 404.88 868.136C390.692 854.327 364.224 828.398 325.476 790.35C260.344 726.391 199.312 660.493 142.382 592.658C129.438 577.225 121.84 568.134 119.588 565.384C105.104 547.711 88.6872 526.245 70.3387 500.986C60.3702 487.272 51.9486 474.364 45.0738 462.262C39.1591 451.879 34.2401 441.116 30.3167 429.974C24.8643 414.518 20.3127 397.408 16.662 378.645C11.008 349.593 10.5991 320.885 15.4352 292.52C17.8058 278.616 21.3261 263.468 25.9963 247.075C31.1524 228.976 39.1591 210.473 50.0165 191.567C70.8898 155.273 99.1476 126.921 134.79 106.51C156.564 94.0402 180.217 84.4688 205.748 77.7955C206.495 77.6059 210.27 76.8769 217.074 75.6086C219.622 75.1464 222.129 74.5122 224.595 73.7062C227.605 72.7224 230.095 72.0883 232.062 71.8038C251.869 68.8998 271.782 67.9278 291.802 68.8879C341.656 71.2704 385.915 87.1061 424.58 116.395C433.754 123.341 442.543 131.259 450.947 140.149C472.828 163.274 490.513 189.422 504.002 218.592C504.266 219.144 504.681 219.571 505.175 219.801C508.743 221.378 511.368 220.359 513.051 216.743C528.899 182.666 550.401 153.252 577.556 128.503C586.505 120.348 595.934 113.201 605.843 107.061C627.511 93.6194 650.844 83.7162 675.842 77.3511ZM258.394 513.77C257.019 526.879 252.823 538.567 245.806 548.831C238.907 558.942 230.729 566.937 221.27 572.816C211.61 578.826 200.314 582.322 187.382 583.306C186.268 583.389 186.031 583.887 186.671 584.799C190.013 589.612 193.362 593.932 196.716 597.761C236.246 642.886 276.95 686.926 318.827 729.881C326.745 738.001 334.141 746.268 341.016 754.684C342.047 755.94 342.539 755.757 342.491 754.133C341.757 725.756 341.365 697.641 341.318 669.786C341.235 617.04 341.152 564.294 341.069 511.547C341.128 476.794 341.282 442.035 341.531 407.27C341.579 400.36 342.403 395.026 344.003 391.268C347.831 382.295 354.753 376.013 364.769 372.422C371.881 371.936 378.169 373.927 383.634 378.396C388.956 382.758 394.604 386.61 400.578 389.953C407.286 393.698 413.616 396.11 419.566 397.189C426.974 398.54 434.021 398.285 440.706 396.424C467.802 388.886 483.211 370.644 486.933 341.699C487.289 338.949 487.603 336.193 487.875 333.431C488.16 330.657 488.267 327.896 488.196 325.146C487.176 281.289 475.009 240.811 451.694 203.711C437.079 180.455 419.003 160.293 397.466 143.225C390.757 137.891 381.796 132.616 370.583 127.401C368.094 126.239 366.304 125.682 365.214 125.729C364.36 125.137 361.931 124.135 357.924 122.725C338.568 115.909 320.516 111.678 303.767 110.03C289.887 108.667 275.486 108.134 260.563 108.43C259.664 108.439 258.937 109.166 258.927 110.066C258.121 197.103 257.837 283.221 258.074 368.421C258.216 416.865 258.323 465.314 258.394 513.77ZM158.188 547.409C158.936 548.031 159.869 548.382 160.837 548.405C168.885 548.559 176.199 548.049 182.777 546.876C193.67 544.932 202.862 539.936 210.353 531.887C215.663 526.186 218.449 519.406 218.71 511.547C218.852 507.482 218.917 501.555 218.905 493.768C218.799 367.675 219.095 241.824 219.794 116.217C219.791 115.842 219.621 115.487 219.331 115.252C219.041 115.017 218.662 114.928 218.301 115.008C191.691 120.65 167.161 130.648 144.711 145.003C134.387 151.605 125.147 158.989 116.992 167.156C103.634 180.55 92.0831 196.042 82.3399 213.632C64.584 245.695 54.4555 279.369 51.9545 314.656C51.0537 327.208 50.8818 339.055 51.4389 350.197C52.5175 372.137 57.1462 393.443 65.3248 414.115C72.7211 432.772 81.1309 449.212 90.5541 463.436C104.173 483.965 120.406 505.236 139.253 527.247C139.359 527.365 141.078 529.451 144.409 533.505C148.415 538.389 153.008 543.023 158.188 547.409ZM489.493 895.232C500.363 903.73 511.351 905.295 522.457 899.926C527.151 897.65 531.104 894.432 534.316 890.271C537.623 885.992 539.875 881.251 541.072 876.048C541.653 873.547 542.151 866.109 542.566 853.734C542.933 842.533 542.761 833.815 542.05 827.58C540.628 815.135 535.406 805.836 526.386 799.684C519.322 794.872 511.949 793.058 504.268 794.244C493.47 795.903 485.286 801.794 479.715 811.916C475.886 818.851 474.09 826.597 474.327 835.154C474.434 839.208 474.487 841.271 474.487 841.342C474.464 848.311 474.351 855.275 474.15 862.233C473.77 875.947 478.885 886.947 489.493 895.232Z" fill="#2c064a" fill-rule="nonzero" opacity="1" stroke="none"/>
<path d="M809.376 606.023C809.263 604.506 811.524 594.001 811.536 592.64C812.318 434.271 812.389 275.552 811.749 116.484C811.747 115.97 811.39 115.518 810.878 115.382C801.147 112.904 788.434 111.02 772.741 109.728C754.712 108.246 741.229 107.547 732.292 107.63C714.631 107.808 697.296 110.261 680.287 114.991C678.521 107.665 676.837 100.316 675.237 92.9438C675.214 92.849 674.597 90.994 673.388 87.3788C672.155 83.728 672.973 80.3854 675.842 77.3511C677.454 76.7702 679.095 76.3554 680.767 76.1065C682.734 75.7983 684.376 75.419 685.692 74.9686C692.543 72.6217 699.572 71.223 706.778 70.7726C714.589 70.2748 718.548 70.0258 718.655 70.0258C744.187 67.7145 769.629 68.6213 794.983 72.7461C834.987 79.2653 871.714 93.4298 905.163 115.239C915.416 121.925 924.685 129.279 932.971 137.304C958.87 162.385 978.244 192.273 991.092 226.967C993.937 234.624 996.42 241.564 998.542 247.787C1001.05 255.195 1003.06 262.283 1004.57 269.051C1017.31 326.704 1012.58 383.09 990.363 438.206C984.342 453.165 975.992 468.461 965.312 484.096C956.114 497.573 948.901 507.689 943.674 514.445C918.972 546.366 893.044 577.249 865.888 607.095C860.365 613.176 857.253 616.465 856.554 616.963C852.5 619.831 847.676 620.548 842.081 619.114C834.294 617.123 818.135 610.847 809.376 606.023ZM902.23 161.146C888.35 148.653 872.324 138.43 854.154 130.477C853.919 130.375 853.649 130.398 853.435 130.538C853.22 130.677 853.09 130.914 853.087 131.17L852.749 562.433C852.749 563.393 853.075 563.523 853.727 562.824C881.238 533.144 906.58 501.863 929.753 468.983C961.033 424.605 975.565 376.12 973.348 323.528C971.428 278.142 958.532 236.597 934.66 198.893C930.037 191.579 925.083 184.912 919.796 178.891C914.296 172.644 908.441 166.729 902.23 161.146Z" fill="#2c064a" fill-rule="nonzero" opacity="1" stroke="none"/>
<path d="M800.548 632.271C782.84 652.149 764.42 671.357 745.289 689.895C744.127 691.021 743.829 693.238 744.374 696.486C744.384 696.553 716.263 713.732 706.083 722.386C701.342 726.428 696.336 731.398 691.097 737.384C686.403 742.742 681.857 748.171 677.46 753.67C676.784 754.536 676.5 754.423 676.606 753.333C677.483 744.372 678.123 735.589 678.526 726.983C678.835 720.381 678.906 711.586 678.74 700.598C678.266 668.073 678.189 644.468 678.509 629.782C678.592 625.989 678.141 623.085 677.157 621.07C672.025 610.604 664.066 607.024 653.279 610.331C646.95 612.275 642.778 616.157 640.763 621.977C639.85 624.608 639.388 629.871 639.376 637.765C639.305 686.505 639.02 735.239 638.522 783.967C638.522 784.062 638.587 785.271 638.718 787.594C638.919 791.008 637.752 793.769 635.215 795.879C633.674 797.148 632.868 797.817 632.797 797.888C618.372 811.626 604.457 825.862 591.051 840.595C589.048 842.8 587.264 845.176 585.699 847.725C584.822 849.159 584.508 849.04 584.757 847.369C585.717 840.767 585.711 834.2 584.739 827.669C583.885 821.944 582.38 815.609 580.223 808.663C576.987 798.208 572.003 789.07 565.27 781.247C551.07 764.723 532.514 756.438 509.602 756.391C510.254 684.857 510.473 613.318 510.26 541.773C510.118 494.064 510.047 446.355 510.047 398.647C510.047 396.94 509.75 395.286 509.158 393.686C513.828 386.728 517.935 379.451 521.479 371.853C524.17 366.104 525.758 360.065 526.244 353.735C527.086 342.594 527.666 331.434 527.986 320.256C528.437 304.587 529.207 293.468 530.298 286.902C532.597 273.128 536.39 259.711 541.677 246.649C556.872 209.086 578.812 177.853 607.497 152.95C627.671 135.443 651.934 122.79 680.287 114.991C697.296 110.261 714.631 107.808 732.292 107.63C741.229 107.547 754.712 108.246 772.741 109.728C788.434 111.02 801.147 112.904 810.878 115.382C811.39 115.518 811.747 115.97 811.749 116.484C812.389 275.552 812.318 434.271 811.536 592.64C811.524 594.001 810.419 604.337 814.877 607.854C819.335 611.371 806.949 625.076 800.548 632.271Z" fill="#1393ce" fill-rule="nonzero" opacity="1" stroke="none"/>
<path d="M365.214 125.729L364.769 372.422C354.753 376.013 347.831 382.295 344.003 391.268C342.403 395.026 341.579 400.36 341.531 407.27C341.282 442.035 341.128 476.794 341.069 511.547L339.771 511.743C338.811 511.885 338.29 511.986 338.207 512.045C333.513 515.198 328.12 516.81 322.027 516.881C315.579 516.952 308.177 517.587 299.82 518.784C290.101 520.182 280.452 520.005 270.875 518.25C269.69 518.037 267.882 517.255 265.452 515.903C263.627 514.884 261.63 514.357 259.461 514.321C259.212 514.323 258.983 514.475 258.874 514.712C258.578 515.34 258.418 515.026 258.394 513.77C258.323 465.314 258.216 416.865 258.074 368.421C257.837 283.221 258.121 197.103 258.927 110.066C258.937 109.166 259.664 108.439 260.563 108.43C275.486 108.134 289.887 108.667 303.767 110.03C320.516 111.678 338.568 115.909 357.924 122.725C361.931 124.135 364.36 125.137 365.214 125.729Z" fill="#fcd21b" fill-rule="nonzero" opacity="1" stroke="none"/>
<path d="M158.188 547.409C153.008 543.023 148.415 538.389 144.409 533.505C141.078 529.451 139.359 527.365 139.253 527.247C120.406 505.236 104.173 483.965 90.5541 463.436C81.1309 449.212 72.7211 432.772 65.3248 414.115C57.1462 393.443 52.5175 372.137 51.4389 350.197C50.8818 339.055 51.0537 327.208 51.9545 314.656C54.4555 279.369 64.584 245.695 82.3399 213.632C92.0831 196.042 103.634 180.55 116.992 167.156C125.147 158.989 134.387 151.605 144.711 145.003C167.161 130.648 191.691 120.65 218.301 115.008C218.662 114.928 219.041 115.017 219.331 115.252C219.621 115.487 219.791 115.842 219.794 116.217C219.095 241.824 218.799 367.675 218.905 493.768C218.917 501.555 218.852 507.482 218.71 511.547C218.449 519.406 215.663 526.186 210.353 531.887C202.862 539.936 193.67 544.932 182.777 546.876C176.199 548.049 168.885 548.559 160.837 548.405C159.869 548.382 158.936 548.031 158.188 547.409Z" fill="#fa0084" fill-rule="nonzero" opacity="1" stroke="none"/>
<path d="M365.214 125.729C366.304 125.682 368.094 126.239 370.583 127.401C381.796 132.616 390.757 137.891 397.466 143.225C419.003 160.293 437.079 180.455 451.694 203.711C475.009 240.811 487.176 281.289 488.196 325.146C488.267 327.896 488.16 330.657 487.875 333.431C487.603 336.193 487.289 338.949 486.933 341.699C483.211 370.644 467.802 388.886 440.706 396.424C434.021 398.285 426.974 398.54 419.566 397.189C413.616 396.11 407.286 393.698 400.578 389.953C394.604 386.61 388.956 382.758 383.634 378.396C378.169 373.927 371.881 371.936 364.769 372.422L365.214 125.729Z" fill="#1cc2fd" fill-rule="nonzero" opacity="1" stroke="none"/>
<path d="M902.23 161.146C908.441 166.729 914.296 172.644 919.796 178.891C925.083 184.912 930.037 191.579 934.66 198.893C958.532 236.597 971.428 278.142 973.348 323.528C975.565 376.12 961.033 424.605 929.753 468.983C906.58 501.863 881.238 533.144 853.727 562.824C853.075 563.523 852.749 563.393 852.749 562.433L853.087 131.17C853.09 130.914 853.22 130.677 853.435 130.538C853.649 130.398 853.919 130.375 854.154 130.477C872.324 138.43 888.35 148.653 902.23 161.146Z" fill="#41a06c" fill-rule="nonzero" opacity="1" stroke="none"/>
<path d="M509.158 393.686C509.75 395.286 510.047 396.94 510.047 398.647C510.047 446.355 510.118 494.064 510.26 541.773C510.473 613.318 510.254 684.857 509.602 756.391C493.482 756.308 479.258 760.439 466.931 768.783C457.555 775.136 449.697 783.854 443.355 794.937C435.224 809.161 431.087 824.736 430.945 841.662C430.921 843.321 430.347 843.541 429.22 842.32C414.606 826.614 399.546 811.401 384.042 796.679C381.707 794.463 380.652 791.849 380.878 788.839C381.055 786.622 381.144 785.472 381.144 785.389C380.67 677.621 380.516 569.847 380.682 462.067C380.682 461.936 380.777 455.518 380.967 442.811C381.061 436.197 380.978 429.672 380.718 423.236C380.682 422.11 381.121 421.873 382.033 422.525C390.994 428.842 400.625 433.477 410.925 436.428C413.474 437.163 418.796 437.685 426.891 437.993C432.96 438.218 438.282 437.94 442.857 437.157C464.323 433.483 482.459 423.355 497.263 406.772C501.187 402.375 505.151 398.013 509.158 393.686Z" fill="#18b7a7" fill-rule="nonzero" opacity="1" stroke="none"/>
<path d="M341.069 511.547C341.152 564.294 341.235 617.04 341.318 669.786C341.365 697.641 341.757 725.756 342.491 754.133C342.539 755.757 342.047 755.94 341.016 754.684C334.141 746.268 326.745 738.001 318.827 729.881C276.95 686.926 236.246 642.886 196.716 597.761C193.362 593.932 190.013 589.612 186.671 584.799C186.031 583.887 186.268 583.389 187.382 583.306C200.314 582.322 211.61 578.826 221.27 572.816C230.729 566.937 238.907 558.942 245.806 548.831C252.823 538.567 257.019 526.879 258.394 513.77C258.418 515.026 258.578 515.34 258.874 514.712C258.983 514.475 259.212 514.323 259.461 514.321C261.63 514.357 263.627 514.884 265.452 515.903C267.882 517.255 269.69 518.037 270.875 518.25C280.452 520.005 290.101 520.182 299.82 518.784C308.177 517.587 315.579 516.952 322.027 516.881C328.12 516.81 333.513 515.198 338.207 512.045C338.29 511.986 338.811 511.885 339.771 511.743L341.069 511.547Z" fill="#fed40a" fill-rule="nonzero" opacity="1" stroke="none"/>
<path d="M489.493 895.232C478.885 886.947 473.77 875.947 474.15 862.233C474.351 855.275 474.464 848.311 474.487 841.342C474.487 841.271 474.434 839.208 474.327 835.154C474.09 826.597 475.886 818.851 479.715 811.916C485.286 801.794 493.47 795.903 504.268 794.244C511.949 793.058 519.322 794.872 526.386 799.684C535.406 805.836 540.628 815.135 542.05 827.58C542.761 833.815 542.933 842.533 542.566 853.734C542.151 866.109 541.653 873.547 541.072 876.048C539.875 881.251 537.623 885.992 534.316 890.271C531.104 894.432 527.151 897.65 522.457 899.926C511.351 905.295 500.363 903.73 489.493 895.232Z" fill="#c553b5" fill-rule="nonzero" opacity="1" stroke="none"/>
</g>
</svg>
